<svg xmlns="http://www.w3.org/2000/svg" xmlns:xlink="http://www.w3.org/1999/xlink"><symbol id="icon-accordeon-toggle" viewBox="0 0 18 18">
<path d="M4.5 11.25L9 6.75L13.5 11.25" stroke="currentColor" stroke-width="1.5" stroke-linecap="round" stroke-linejoin="round"/>
</symbol><symbol id="icon-basket" viewBox="0 0 18 18">
<path d="M6 1.5C5.05573 1.5 4.16656 1.94458 3.6 2.7L2.85 3.7C2.46053 4.21929 2.25 4.85089 2.25 5.5V15C2.25 15.3978 2.40804 15.7794 2.68934 16.0607C2.97064 16.342 3.35218 16.5 3.75 16.5H14.25C14.6478 16.5 15.0294 16.342 15.3107 16.0607C15.592 15.7794 15.75 15.3978 15.75 15V5.5C15.75 4.85089 15.5395 4.21929 15.15 3.7L14.4 2.7C13.8334 1.94458 12.9443 1.5 12 1.5H6Z" fill="currentColor"/>
<path d="M2.25 4.5H15.75" stroke="white" stroke-width="1.5" stroke-linecap="round" stroke-linejoin="round"/>
<path d="M12 7.5C12 8.29565 11.6839 9.05871 11.1213 9.62132C10.5587 10.1839 9.79565 10.5 9 10.5C8.20435 10.5 7.44129 10.1839 6.87868 9.62132C6.31607 9.05871 6 8.29565 6 7.5" stroke="white" stroke-width="1.5" stroke-linecap="round" stroke-linejoin="round"/>
</symbol><symbol id="icon-close" viewBox="0 0 20 20"><path d="M.293 18.291a1 1 0 101.414 1.414L10 11.413l8.292 8.292a1 1 0 101.414-1.414l-8.292-8.292 8.292-8.292A1 1 0 1018.291.293L9.999 8.585 1.707.293A1 1 0 10.293 1.707L8.585 10 .293 18.291z"/></symbol><symbol id="icon-lang-toggle" viewBox="0 0 5 4">
<path d="M2.5 0L4.66506 3.75H0.334936L2.5 0Z" fill="currentColor"/>
</symbol><symbol id="icon-search" viewBox="0 0 14 14">
<g opacity="0.5">
<path d="M6.41667 11.0833C8.994 11.0833 11.0833 8.994 11.0833 6.41667C11.0833 3.83934 8.994 1.75 6.41667 1.75C3.83934 1.75 1.75 3.83934 1.75 6.41667C1.75 8.994 3.83934 11.0833 6.41667 11.0833Z" stroke="currentColor" stroke-linecap="round" stroke-linejoin="round"/>
<path d="M12.25 12.25L9.71252 9.71249" stroke="currentColor" stroke-linecap="round" stroke-linejoin="round"/>
</g>
</symbol><symbol id="icon-tg" viewBox="0 0 24 24">
<g opacity="0.5">
<path d="M10.2781 14.1204L10.0135 17.843C10.3921 17.843 10.5561 17.6804 10.7528 17.485L12.5281 15.7884L16.2068 18.4824C16.8815 18.8584 17.3568 18.6604 17.5388 17.8617L19.9535 6.54703L19.9541 6.54637C20.1681 5.54903 19.5935 5.15903 18.9361 5.4037L4.74279 10.8377C3.77412 11.2137 3.78879 11.7537 4.57812 11.9984L8.20678 13.127L16.6355 7.85303C17.0321 7.59037 17.3928 7.7357 17.0961 7.99837L10.2781 14.1204Z" fill="currentColor"/>
</g>
</symbol><symbol id="icon-ws" viewBox="0 0 24 24">
<g opacity="0.5">
<path fill-rule="evenodd" clip-rule="evenodd" d="M17.3069 6.67206C15.9036 5.26709 14.0373 4.49301 12.049 4.49219C7.95206 4.49219 4.61771 7.82645 4.61606 11.9245C4.61551 13.2346 4.95773 14.5134 5.60822 15.6406L4.55371 19.4922L8.49405 18.4586C9.57977 19.0508 10.8021 19.3629 12.046 19.3633H12.0491C16.1457 19.3633 19.4804 16.0287 19.4819 11.9305C19.4828 9.94434 18.7103 8.07693 17.3069 6.67206ZM12.049 18.108H12.0465C10.938 18.1075 9.85077 17.8096 8.9021 17.2469L8.67661 17.1129L6.33835 17.7263L6.96246 15.4466L6.81552 15.2128C6.19708 14.2292 5.87051 13.0923 5.87106 11.925C5.87234 8.51877 8.64383 5.74756 12.0515 5.74756C13.7017 5.74811 15.2528 6.39154 16.4192 7.5593C17.5856 8.72705 18.2276 10.2792 18.227 11.93C18.2256 15.3365 15.4543 18.108 12.049 18.108ZM15.4378 13.481C15.2521 13.388 14.339 12.9388 14.1687 12.8768C13.9986 12.8148 13.8746 12.7839 13.7509 12.9698C13.627 13.1556 13.2712 13.574 13.1628 13.6979C13.0544 13.8219 12.9462 13.8374 12.7604 13.7444C12.5746 13.6515 11.9763 13.4553 11.2668 12.8226C10.7148 12.3301 10.342 11.7219 10.2336 11.5361C10.1254 11.35 10.2327 11.2592 10.3151 11.157C10.5162 10.9074 10.7175 10.6456 10.7794 10.5218C10.8414 10.3978 10.8103 10.2893 10.7638 10.1964C10.7175 10.1035 10.3461 9.1893 10.1913 8.81732C10.0405 8.45532 9.88748 8.50421 9.77341 8.49853C9.66519 8.49313 9.54132 8.49203 9.41745 8.49203C9.29367 8.49203 9.09244 8.53845 8.92215 8.72449C8.75195 8.91043 8.27222 9.35968 8.27222 10.2738C8.27222 11.188 8.93771 12.0711 9.03055 12.1951C9.12338 12.319 10.3402 14.1949 12.2032 14.9993C12.6463 15.1909 12.9922 15.305 13.262 15.3906C13.707 15.532 14.1117 15.512 14.4318 15.4642C14.7887 15.4109 15.5305 15.0149 15.6854 14.5811C15.8401 14.1472 15.8401 13.7755 15.7936 13.6979C15.7473 13.6205 15.6234 13.574 15.4378 13.481Z" fill="currentColor"/>
</g>
</symbol></svg>